<?xml version="1.0" encoding="UTF-8"?>
<!DOCTYPE svg PUBLIC "-//W3C//DTD SVG 1.1//EN" "http://www.w3.org/Graphics/SVG/1.1/DTD/svg11.dtd">
<!-- Creator: CorelDRAW -->
<svg xmlns="http://www.w3.org/2000/svg" xml:space="preserve" width="2.00497in" height="0.492929in" version="1.1" style="shape-rendering:geometricPrecision; text-rendering:geometricPrecision; image-rendering:optimizeQuality; fill-rule:evenodd; clip-rule:evenodd"
viewBox="0 0 640.33 157.43"
 xmlns:xlink="http://www.w3.org/1999/xlink"
 xmlns:xodm="http://www.corel.com/coreldraw/odm/2003">
 <defs>
  <style type="text/css">
   <![CDATA[
    .fil3 {fill:none}
    .fil13 {fill:#1F3140}
    .fil6 {fill:#293347}
    .fil0 {fill:#7510F7}
    .fil5 {fill:#B7C1DB}
    .fil1 {fill:#D0C6AC}
    .fil7 {fill:#F4F4F4}
    .fil10 {fill:#FF4F6D}
    .fil2 {fill:#FFDBB4}
    .fil11 {fill:white}
    .fil14 {fill:#373435;fill-rule:nonzero}
    .fil4 {fill:black;fill-opacity:0.101961}
    .fil8 {fill:black;fill-opacity:0.160784}
    .fil12 {fill:black;fill-opacity:0.600000}
    .fil9 {fill:black;fill-opacity:0.698039}
   ]]>
  </style>
     <clipPath id="id0">
      <path d="M143.59 85.63c0,-39.65 -32.14,-71.79 -71.79,-71.79 -39.65,0 -71.79,32.14 -71.79,71.79 0,39.65 32.14,71.79 71.79,71.79 39.65,0 71.79,-32.14 71.79,-71.79z"/>
     </clipPath>
       <clipPath id="id1">
        <path d="M88.17 15.72c10.22,5.74 17.13,16.68 17.13,29.23l0 3.69c3.4,0.57 5.98,3.52 5.98,7.08l0 8.38c0,3.62 -2.68,6.62 -6.17,7.11 -1.24,11.85 -8.65,21.86 -18.96,26.76l0 11 2.39 0c16.53,0 30.88,9.31 38.1,22.97 -13.17,15.59 -32.86,25.49 -54.86,25.49 -22,0 -41.69,-9.9 -54.86,-25.48 7.22,-13.66 21.57,-22.98 38.1,-22.98l2.39 0 0 -11c-10.31,-4.9 -17.73,-14.91 -18.96,-26.76 -3.48,-0.49 -6.16,-3.49 -6.16,-7.11l0 -8.38c0,-3.56 2.59,-6.51 5.98,-7.08l0 -3.69c0,-12.55 6.91,-23.5 17.13,-29.23 5.26,-1.23 10.74,-1.88 16.37,-1.88 5.63,0 11.12,0.65 16.38,1.88z"/>
       </clipPath>
       <clipPath id="id2">
        <path d="M143.59 85.63c0,-39.65 -32.14,-71.79 -71.79,-71.79 -39.65,0 -71.79,32.14 -71.79,71.79 0,39.65 32.14,71.79 71.79,71.79 39.65,0 71.79,-32.14 71.79,-71.79z"/>
       </clipPath>
       <clipPath id="id3">
        <path d="M86.15 99.44c10.83,1.21 19.14,4.54 19.14,13.17l-0 -0.26c9.18,3.88 16.73,10.84 21.36,19.59 -13.17,15.59 -32.86,25.49 -54.86,25.49 -22,0 -41.69,-9.9 -54.86,-25.49 4.63,-8.75 12.18,-15.72 21.36,-19.59 0.16,-8.43 8.42,-11.71 19.14,-12.91l0 11.33c0,7.93 6.43,14.36 14.36,14.36 7.93,0 14.36,-6.43 14.36,-14.36l0 -11.33z"/>
       </clipPath>
       <clipPath id="id4">
        <path d="M143.59 85.63c0,-39.65 -32.14,-71.79 -71.79,-71.79 -39.65,0 -71.79,32.14 -71.79,71.79 0,39.65 32.14,71.79 71.79,71.79 39.65,0 71.79,-32.14 71.79,-71.79z"/>
       </clipPath>
       <clipPath id="id5">
        <path d="M60.5 79.13c0.63,5.68 5.45,10.09 11.3,10.09 5.87,0 10.69,-4.44 11.3,-10.15 0.05,-0.46 -0.46,-1.22 -1.11,-1.22 -8.91,0 -15.74,0 -20.32,0 -0.65,0 -1.24,0.7 -1.18,1.27z"/>
       </clipPath>
       <clipPath id="id6">
        <path d="M143.59 85.63c0,-39.65 -32.14,-71.79 -71.79,-71.79 -39.65,0 -71.79,32.14 -71.79,71.79 0,39.65 32.14,71.79 71.79,71.79 39.65,0 71.79,-32.14 71.79,-71.79z"/>
       </clipPath>
       <clipPath id="id7">
        <path d="M60.5 79.13c0.63,5.68 5.45,10.09 11.3,10.09 5.87,0 10.69,-4.44 11.3,-10.15 0.05,-0.46 -0.46,-1.22 -1.11,-1.22 -8.91,0 -15.74,0 -20.32,0 -0.65,0 -1.24,0.7 -1.18,1.27z"/>
       </clipPath>
       <clipPath id="id8">
        <path d="M143.59 85.63c0,-39.65 -32.14,-71.79 -71.79,-71.79 -39.65,0 -71.79,32.14 -71.79,71.79 0,39.65 32.14,71.79 71.79,71.79 39.65,0 71.79,-32.14 71.79,-71.79z"/>
       </clipPath>
     <clipPath id="id9">
      <rect x="11.91" width="119.76" height="117.59"/>
     </clipPath>
      <clipPath id="id10">
       <rect x="11.91" y="0" width="119.76" height="117.59"/>
      </clipPath>
 </defs>
 <g id="Layer_x0020_1">
  <metadata id="CorelCorpID_0Corel-Layer"/>
  <g id="_2097816107072">
   <g>
    <path class="fil0" d="M143.59 85.63c0,-39.65 -32.14,-71.79 -71.79,-71.79 -39.65,0 -71.79,32.14 -71.79,71.79 0,39.65 32.14,71.79 71.79,71.79 39.65,0 71.79,-32.14 71.79,-71.79z"/>
    <g style="clip-path:url(#id0)">
     <g>
      <g>
       <path id="_1" class="fil1" d="M71.79 11.45c18.5,0 33.5,15 33.5,33.5l0 3.69c3.4,0.57 5.98,3.52 5.98,7.08l0 8.38c0,3.62 -2.68,6.62 -6.17,7.11 -1.24,11.85 -8.65,21.86 -18.96,26.76l0 11 2.39 0c23.79,0 43.08,19.29 43.08,43.08l0 5.38 -119.66 0 0 -5.38c0,-23.79 19.29,-43.08 43.08,-43.08l2.39 0 0 -11c-10.31,-4.9 -17.73,-14.91 -18.96,-26.76 -3.48,-0.49 -6.16,-3.49 -6.16,-7.11l0 -8.38c0,-3.56 2.59,-6.51 5.98,-7.08l0 -3.69c0,-18.5 15,-33.5 33.5,-33.5z"/>
      </g>
      <g style="clip-path:url(#id1)">
       <g>
        <rect class="fil2" x="-7.44" y="11.2" width="158.47" height="146.48"/>
       </g>
      </g>
      <g style="clip-path:url(#id2)">
       <path class="fil3" d="M71.79 11.45c18.5,0 33.5,15 33.5,33.5l0 3.69c3.4,0.57 5.98,3.52 5.98,7.08l0 8.38c0,3.62 -2.68,6.62 -6.17,7.11 -1.24,11.85 -8.65,21.86 -18.96,26.76l0 11 2.39 0c23.79,0 43.08,19.29 43.08,43.08l0 5.38 -119.66 0 0 -5.38c0,-23.79 19.29,-43.08 43.08,-43.08l2.39 0 0 -11c-10.31,-4.9 -17.73,-14.91 -18.96,-26.76 -3.48,-0.49 -6.16,-3.49 -6.16,-7.11l0 -8.38c0,-3.56 2.59,-6.51 5.98,-7.08l0 -3.69c0,-18.5 15,-33.5 33.5,-33.5z"/>
       <path id="Neck-Shadow" class="fil4" d="M38.29 67.69c0,18.5 15,33.5 33.5,33.5 18.5,0 33.5,-15 33.5,-33.5l0 0 0 4.79c0,18.5 -15,33.5 -33.5,33.5 -18.5,0 -33.5,-15 -33.5,-33.5l0 -4.79z"/>
       <path class="fil5" d="M86.15 99.44c10.83,1.21 19.14,4.54 19.14,13.17l-0 -0.26c15.47,6.53 26.33,21.85 26.33,39.7l0 5.39 -119.66 0 0 -5.39c0,-17.85 10.86,-33.16 26.33,-39.7 0.16,-8.43 8.42,-11.71 19.14,-12.91l0 11.33c0,7.93 6.43,14.36 14.36,14.36 7.93,0 14.36,-6.43 14.36,-14.36l0 0 0 -11.33z"/>
      </g>
      <g style="clip-path:url(#id3)">
       <g>
        <rect id="__xd83d__xdd8d_Color" class="fil6" x="-7.48" y="95.53" width="158.54" height="65.81"/>
       </g>
      </g>
      <g style="clip-path:url(#id4)">
       <path class="fil3" d="M86.15 99.44c10.83,1.21 19.14,4.54 19.14,13.17l-0 -0.26c15.47,6.53 26.33,21.85 26.33,39.7l0 5.39 -119.66 0 0 -5.39c0,-17.85 10.86,-33.16 26.33,-39.7 0.16,-8.43 8.42,-11.71 19.14,-12.91l0 11.33c0,7.93 6.43,14.36 14.36,14.36 7.93,0 14.36,-6.43 14.36,-14.36l0 0 0 -11.33z"/>
       <path id="Straps" class="fil7" d="M53.84 128.56l0 28.87 -4.19 0 0 -31.02c1.32,0.78 2.72,1.5 4.19,2.15zm40.09 -2.15l0 24.14c0,1.16 -0.94,2.09 -2.09,2.09 -1.16,0 -2.09,-0.94 -2.09,-2.09l0 -21.99c1.47,-0.65 2.87,-1.36 4.19,-2.15z"/>
       <path id="Shadow" class="fil8" d="M96.34 99.23c9.01,1.7 15.23,5.1 15.23,11.72 0,11.79 -19.77,21.35 -39.79,21.35 -20.02,0 -39.78,-9.56 -39.78,-21.35 0,-6.62 6.23,-10.01 15.23,-11.72 -5.44,2 -8.95,5.37 -8.95,10.98 0,12.2 16.65,22.09 33.5,22.09 16.86,0 33.5,-9.89 33.5,-22.09 0,-5.49 -3.37,-8.83 -8.61,-10.85l-0.34 -0.13z"/>
      </g>
      <g style="clip-path:url(#id5)">
       <polygon class="fil9" points="60.49,77.86 83.1,77.86 83.1,89.22 60.49,89.22 "/>
      </g>
      <g style="clip-path:url(#id6)">
      </g>
      <g style="clip-path:url(#id7)">
       <g>
        <g>
         <circle class="fil10" cx="68.8" cy="91.02" r="6.58"/>
         <circle class="fil10" cx="74.78" cy="91.02" r="6.58"/>
        </g>
        <path id="Teeth" class="fil11" d="M65.81 71.28l12.56 0c1.65,0 2.99,1.34 2.99,2.99l0 3.59c0,1.65 -1.34,2.99 -2.99,2.99l-12.56 0c-1.65,0 -2.99,-1.34 -2.99,-2.99l0 -3.59c0,-1.65 1.34,-2.99 2.99,-2.99z"/>
       </g>
      </g>
      <g style="clip-path:url(#id8)">
       <path class="fil3" d="M60.5 79.13c0.63,5.68 5.45,10.09 11.3,10.09 5.87,0 10.69,-4.44 11.3,-10.15 0.05,-0.46 -0.46,-1.22 -1.11,-1.22 -8.91,0 -15.74,0 -20.32,0 -0.65,0 -1.24,0.7 -1.18,1.27z"/>
       <path id="Nose" class="fil8" d="M64.61 67.69c0,2.64 3.21,4.79 7.18,4.79l0 0c3.97,0 7.18,-2.14 7.18,-4.79m-14.36 0l0 0 0 0z"/>
       <path id="Squint" class="fil12" d="M47.96 57.19c1.11,-2.27 3.59,-3.86 6.48,-3.86 2.88,0 5.36,1.57 6.47,3.83 0.33,0.67 -0.14,1.22 -0.61,0.81 -1.47,-1.26 -3.55,-2.05 -5.86,-2.05 -2.24,0 -4.26,0.74 -5.72,1.93 -0.53,0.44 -1.09,-0.01 -0.76,-0.67z"/>
       <path id="Squint_0" class="fil12" d="M82.66 57.19c1.11,-2.27 3.59,-3.86 6.48,-3.86 2.88,0 5.36,1.57 6.47,3.83 0.33,0.67 -0.14,1.22 -0.61,0.81 -1.47,-1.26 -3.55,-2.05 -5.86,-2.05 -2.24,0 -4.26,0.74 -5.72,1.93 -0.53,0.44 -1.09,-0.01 -0.76,-0.67z"/>
       <path id="Eyebrow" class="fil12" d="M54.17 42.65c-3.47,0.16 -9.09,2.68 -8.95,6.19 0,0.11 0.17,0.17 0.26,0.08 1.65,-1.77 13.35,-3.56 17.47,-2.61 0.38,0.09 0.66,-0.28 0.42,-0.55 -2.05,-2.3 -6.09,-3.25 -9.21,-3.1z"/>
       <path id="Eyebrow_1" class="fil12" d="M90.01 42.65c3.47,0.16 9.09,2.68 8.95,6.19 -0.01,0.11 -0.17,0.17 -0.26,0.08 -1.65,-1.77 -13.35,-3.56 -17.47,-2.61 -0.38,0.09 -0.66,-0.28 -0.42,-0.55 2.05,-2.3 6.09,-3.25 9.21,-3.1z"/>
       <path class="fil13" d="M99.93 13.79c-1.65,-1.69 -3.57,-3.12 -5.43,-4.56 -0.41,-0.32 -0.83,-0.62 -1.23,-0.95 -0.09,-0.08 -1.03,-0.75 -1.14,-0.99 -0.27,-0.59 -0.11,-0.13 -0.08,-0.84 0.05,-0.9 1.87,-3.43 0.51,-4.01 -0.6,-0.26 -1.67,0.42 -2.25,0.65 -1.13,0.44 -2.27,0.81 -3.43,1.14 0.56,-1.11 1.62,-3.33 -0.38,-2.74 -1.56,0.46 -3.01,1.66 -4.57,2.22 0.52,-0.85 2.59,-3.48 0.72,-3.62 -0.58,-0.05 -2.28,1.05 -2.9,1.28 -1.88,0.7 -3.79,1.15 -5.76,1.5 -6.7,1.21 -14.53,0.86 -20.73,3.91 -4.78,2.35 -9.5,6 -12.26,10.65 -2.66,4.48 -3.66,9.38 -4.21,14.51 -0.41,3.77 -0.44,7.66 -0.25,11.44 0.06,1.24 0.2,6.95 2,5.22 0.9,-0.86 0.89,-4.34 1.12,-5.52 0.45,-2.34 0.88,-4.7 1.63,-6.96 1.32,-4 2.88,-5.86 6.16,-8.61 2.11,-1.77 3.59,-4.15 5.61,-5.93 0.91,-0.8 0.22,-0.72 1.67,-0.61 0.98,0.07 1.96,0.1 2.95,0.12 2.27,0.06 4.55,0.04 6.82,0.05 4.58,0.02 9.13,0.08 13.7,-0.16 2.03,-0.11 4.07,-0.16 6.09,-0.35 1.13,-0.1 3.14,-0.83 4.07,-0.28 0.85,0.51 1.74,2.16 2.35,2.84 1.45,1.6 3.17,2.83 4.86,4.14 3.53,2.74 5.31,3.79 6.38,8.07 1.07,4.27 0.77,8.22 2.09,12.42 0.23,0.74 0.85,2.01 1.6,0.87 0.14,-0.21 0.1,-1.38 0.1,-2.05 0,-2.7 0.68,-4.73 0.68,-7.45 -0.03,-8.27 -0.3,-19.07 -6.49,-25.39z"/>
      </g>
     </g>
    </g>
    <path class="fil3" d="M143.59 85.63c0,-39.65 -32.14,-71.79 -71.79,-71.79 -39.65,0 -71.79,32.14 -71.79,71.79 0,39.65 32.14,71.79 71.79,71.79 39.65,0 71.79,-32.14 71.79,-71.79z"/>
    <g style="clip-path:url(#id9)">
     <image style="clip-path:url(#id10)" x="11.91" y="0" width="119.76" height="157.52" xlink:href="logo_Images\logo_ImgID1.png"/>
    </g>
   </g>
   <path class="fil14" d="M178.2 105.65l33.21 -74.52 17.03 0 33.32 74.52 -18.1 0 -27.25 -65.79 6.81 0 -27.36 65.79 -17.67 0zm16.61 -15.97l4.58 -13.09 38.32 0 4.68 13.09 -47.59 0zm97.62 16.82c-5.39,0 -10.26,-1.22 -14.58,-3.67 -4.33,-2.45 -7.75,-5.87 -10.27,-10.27 -2.52,-4.4 -3.78,-9.58 -3.78,-15.54 0,-6.03 1.26,-11.25 3.78,-15.65 2.52,-4.4 5.94,-7.81 10.27,-10.22 4.33,-2.41 9.19,-3.62 14.58,-3.62 4.83,0 9.05,1.06 12.67,3.19 3.62,2.13 6.42,5.36 8.41,9.69 1.99,4.33 2.98,9.86 2.98,16.61 0,6.67 -0.96,12.19 -2.87,16.55 -1.92,4.37 -4.67,7.61 -8.25,9.74 -3.58,2.13 -7.9,3.19 -12.93,3.19zm2.87 -13.63c2.7,0 5.15,-0.64 7.35,-1.92 2.2,-1.28 3.96,-3.11 5.27,-5.48 1.31,-2.38 1.97,-5.2 1.97,-8.46 0,-3.34 -0.66,-6.17 -1.97,-8.52 -1.31,-2.34 -3.07,-4.15 -5.27,-5.43 -2.2,-1.28 -4.65,-1.92 -7.35,-1.92 -2.77,0 -5.25,0.64 -7.45,1.92 -2.2,1.28 -3.96,3.09 -5.27,5.43 -1.31,2.34 -1.97,5.18 -1.97,8.52 0,3.26 0.66,6.09 1.97,8.46 1.31,2.38 3.07,4.2 5.27,5.48 2.2,1.28 4.68,1.92 7.45,1.92zm15.01 12.77l0 -11.71 0.32 -17.03 -1.06 -16.93 0 -33.32 16.61 0 0 78.99 -15.86 0zm59.62 0.85c-6.53,0 -12.26,-1.28 -17.19,-3.83 -4.93,-2.55 -8.75,-6.05 -11.44,-10.49 -2.7,-4.44 -4.05,-9.49 -4.05,-15.17 0,-5.75 1.33,-10.84 3.99,-15.28 2.66,-4.44 6.3,-7.91 10.91,-10.43 4.61,-2.52 9.83,-3.78 15.65,-3.78 5.61,0 10.66,1.19 15.17,3.57 4.51,2.38 8.07,5.78 10.7,10.22 2.63,4.44 3.94,9.74 3.94,15.92 0,0.64 -0.04,1.37 -0.11,2.18 -0.07,0.82 -0.14,1.58 -0.21,2.29l-46.52 0 0 -9.69 37.79 0 -6.39 2.87c0,-2.98 -0.6,-5.57 -1.81,-7.77 -1.21,-2.2 -2.87,-3.92 -5,-5.16 -2.13,-1.24 -4.61,-1.86 -7.45,-1.86 -2.84,0 -5.34,0.62 -7.51,1.86 -2.16,1.24 -3.85,2.98 -5.06,5.22 -1.21,2.24 -1.81,4.88 -1.81,7.93l0 2.55c0,3.12 0.69,5.87 2.08,8.25 1.38,2.38 3.34,4.19 5.86,5.43 2.52,1.24 5.48,1.86 8.89,1.86 3.05,0 5.73,-0.46 8.04,-1.38 2.31,-0.92 4.42,-2.31 6.33,-4.15l8.84 9.58c-2.63,2.98 -5.93,5.27 -9.9,6.87 -3.97,1.6 -8.55,2.4 -13.73,2.4zm62.17 0c-6.74,0 -11.99,-1.72 -15.76,-5.16 -3.76,-3.44 -5.64,-8.57 -5.64,-15.38l0 -50.25 16.61 0 0 50.03c0,2.41 0.64,4.28 1.92,5.59 1.28,1.31 3.02,1.97 5.22,1.97 2.63,0 4.86,-0.71 6.71,-2.13l4.47 11.71c-1.7,1.21 -3.74,2.11 -6.12,2.71 -2.38,0.6 -4.84,0.9 -7.4,0.9zm-30.23 -44.07l0 -12.77 39.71 0 0 12.77 -39.71 0zm88.25 43.22l0 -11.18 -1.06 -2.45 0 -20.01c0,-3.55 -1.08,-6.32 -3.25,-8.3 -2.16,-1.99 -5.48,-2.98 -9.95,-2.98 -3.05,0 -6.05,0.48 -9,1.44 -2.94,0.96 -5.45,2.25 -7.51,3.89l-5.96 -11.6c3.12,-2.2 6.88,-3.9 11.28,-5.11 4.4,-1.21 8.87,-1.81 13.41,-1.81 8.73,0 15.51,2.06 20.33,6.17 4.83,4.12 7.24,10.54 7.24,19.27l0 32.68 -15.54 0zm-17.46 0.85c-4.47,0 -8.3,-0.76 -11.5,-2.29 -3.19,-1.53 -5.64,-3.6 -7.35,-6.23 -1.7,-2.63 -2.55,-5.57 -2.55,-8.84 0,-3.41 0.83,-6.39 2.5,-8.94 1.67,-2.55 4.31,-4.56 7.93,-6.02 3.62,-1.45 8.34,-2.18 14.16,-2.18l15.22 0 0 9.69 -13.41 0c-3.9,0 -6.58,0.64 -8.04,1.92 -1.45,1.28 -2.18,2.87 -2.18,4.79 0,2.13 0.83,3.81 2.5,5.06 1.67,1.24 3.96,1.86 6.87,1.86 2.77,0 5.25,-0.66 7.45,-1.97 2.2,-1.31 3.8,-3.25 4.79,-5.8l2.55 7.66c-1.21,3.69 -3.41,6.49 -6.6,8.41 -3.19,1.92 -7.31,2.87 -12.35,2.87zm54.19 20.65c-2.98,0 -5.93,-0.46 -8.84,-1.38 -2.91,-0.92 -5.29,-2.2 -7.13,-3.83l6.07 -11.82c1.28,1.14 2.75,2.02 4.42,2.66 1.67,0.64 3.32,0.96 4.95,0.96 2.34,0 4.2,-0.55 5.59,-1.65 1.38,-1.1 2.64,-2.93 3.78,-5.48l2.98 -7.03 1.28 -1.81 20.55 -49.4 15.97 0 -25.87 60.79c-1.84,4.61 -3.96,8.23 -6.33,10.86 -2.38,2.63 -5,4.47 -7.88,5.54 -2.87,1.06 -6.05,1.6 -9.53,1.6zm9.79 -19.27l-25.55 -59.51 17.14 0 19.8 47.91 -11.39 11.6zm72.29 -1.38c-6.1,0 -11.52,-1.28 -16.24,-3.83 -4.72,-2.55 -8.45,-6.05 -11.18,-10.49 -2.73,-4.44 -4.1,-9.49 -4.1,-15.17 0,-5.75 1.37,-10.84 4.1,-15.28 2.73,-4.44 6.46,-7.91 11.18,-10.43 4.72,-2.52 10.13,-3.78 16.24,-3.78 6.03,0 11.43,1.26 16.18,3.78 4.76,2.52 8.48,5.98 11.18,10.38 2.7,4.4 4.05,9.51 4.05,15.33 0,5.68 -1.35,10.73 -4.05,15.17 -2.7,4.43 -6.42,7.93 -11.18,10.49 -4.76,2.55 -10.15,3.83 -16.18,3.83zm0 -13.63c2.77,0 5.25,-0.64 7.45,-1.92 2.2,-1.28 3.94,-3.11 5.22,-5.48 1.28,-2.38 1.92,-5.2 1.92,-8.46 0,-3.34 -0.64,-6.17 -1.92,-8.52 -1.28,-2.34 -3.02,-4.15 -5.22,-5.43 -2.2,-1.28 -4.68,-1.92 -7.45,-1.92 -2.77,0 -5.25,0.64 -7.45,1.92 -2.2,1.28 -3.96,3.09 -5.27,5.43 -1.31,2.34 -1.97,5.18 -1.97,8.52 0,3.26 0.66,6.09 1.97,8.46 1.31,2.38 3.07,4.2 5.27,5.48 2.2,1.28 4.68,1.92 7.45,1.92z"/>
  </g>
 </g>
</svg>
